<svg width="256" height="256" xmlns="http://www.w3.org/2000/svg">
 <!-- Created with Method Draw - http://github.com/duopixel/Method-Draw/ -->

 <g>
  <title>background</title>
  <rect fill="#fff" id="canvas_background" height="258" width="258" y="-1" x="-1"/>
  <g display="none" overflow="visible" y="0" x="0" height="100%" width="100%" id="canvasGrid">
   <rect fill="url(#gridpattern)" stroke-width="0" y="0" x="0" height="100%" width="100%"/>
  </g>
 </g>
 <g>
  <title>Layer 1</title>
  <metadata id="svg_9">image/svg+xml</metadata>

  <g transform="matrix(0.751983, 0, 0, 0.758126, 131.721, 28.7762)" id="svg_12">
   <path fill="#007fff" id="svg_8" d="m89.521584,40.425632l0,66.838047l-59.110416,-8.667877l59.110416,19.65136l19.705597,-8.093193l0,-60.428497l0.0065,-0.00293l-0.0065,-0.012848l0,-1.190277l-19.705597,-8.093784z"/>
   <path fill="#007fff" id="svg_7" d="m68.835976,51.812508l-18.105167,17.669556l-10.900269,-8.104919l-4.492371,1.481384l11.089722,10.823303l-11.089722,10.822723l4.492371,1.481995l10.900269,-8.105499l0.00061,0l18.103947,17.668396l10.843445,-4.548798l0,-34.639374l-10.842834,-4.548767zm-0.00061,12.607483l0,18.521362l-12.455753,-9.260681l12.455753,-9.260681z"/>
  </g>
  <text opacity="0.75" font-weight="bold" transform="matrix(2.1231, 0, 0, 2.23621, -154.223, -261.437)" xml:space="preserve" text-anchor="start" font-family="Junction, sans-serif" font-size="24" id="svg_14" y="164.232725" x="90.678446" stroke-width="0" stroke="#000" fill="#000000">Web</text>
  <text font-weight="bold" opacity="0.76" transform="matrix(2.22516, 0, 0, 2.38021, -145.792, -283.074)" xml:space="preserve" text-anchor="start" font-family="Junction, sans-serif" font-size="24" id="svg_15" y="190.142996" x="82.566144" fill-opacity="null" stroke-opacity="null" stroke-width="0" stroke="#000" fill="#000000">Search</text>
 </g>
</svg>